# xmcd
#
# Track frame offsets: 
#        150
#        19370
#        38699
#        62797
#        92043
#
# Disc length: 1451 seconds
#
# Revision: 6
# Processed by: cddbd v1.5.2PL0 Copyright (c) Steve Scherf et al.
# Submitted via: ExactAudioCopyFreeDBPlugin 1.0
#
DISCID=3a05a905
DTITLE=宇多田ヒカル - UTADA HIKARU SINGLE COLLECTION VOL.2
DYEAR=2010
DGENRE=JPop
TTITLE0=嵐の女神
TTITLE1=Show Me Love (Not A Dream)
TTITLE2=GoodBye Happiness
TTITLE3=Hymne à l'amour 〜愛のアンセム〜
TTITLE4=Can't Wait 'Til Christmas
EXTD=YEAR: 2010
EXTT0=
EXTT1=
EXTT2=
EXTT3=
EXTT4=
PLAYORDER=
